{
	"asset":{
		"generator":"Khronos glTF Blender I/O v4.0.44",
		"version":"2.0"
	},
	"extensionsUsed":[
		"KHR_materials_specular",
		"KHR_materials_ior"
	],
	"scene":2,
	"scenes":[
		{
			"name":"bake scene"
		},
		{
			"name":"comp_scene"
		},
		{
			"name":"Scene",
			"nodes":[
				0,
				1,
				2
			]
		}
	],
	"nodes":[
		{
			"mesh":0,
			"name":"PlanterDirt.003",
			"translation":[
				0.004474621266126633,
				-0.0006686560809612274,
				0.027102211490273476
			]
		},
		{
			"mesh":1,
			"name":"PlanterLogs.003",
			"rotation":[
				0,
				0.3010088801383972,
				0,
				0.9536214470863342
			],
			"translation":[
				-0.004548201337456703,
				-0.024047479033470154,
				0.0026522947009652853
			]
		},
		{
			"mesh":2,
			"name":"PlanterRopes.003",
			"translation":[
				-0.008696414530277252,
				0.9334425926208496,
				0.010274693369865417
			]
		}
	],
	"materials":[
		{
			"doubleSided":true,
			"extensions":{
				"KHR_materials_specular":{
					"specularFactor":0.04317737743258476
				},
				"KHR_materials_ior":{
					"ior":1.4500000476837158
				}
			},
			"name":"Dirt",
			"normalTexture":{
				"index":0,
				"scale":0.9000000953674316,
				"texCoord":2
			},
			"pbrMetallicRoughness":{
				"baseColorFactor":[
					0.051269881427288055,
					0.02315366081893444,
					0.006995455827564001,
					1
				],
				"baseColorTexture":{
					"index":1
				},
				"metallicFactor":0,
				"metallicRoughnessTexture":{
					"index":2,
					"texCoord":1
				}
			}
		},
		{
			"doubleSided":true,
			"extensions":{
				"KHR_materials_specular":{
					"specularFactor":0
				},
				"KHR_materials_ior":{
					"ior":1.4500000476837158
				}
			},
			"name":"LogMaterial.003",
			"pbrMetallicRoughness":{
				"baseColorFactor":[
					0.17817556858062744,
					0.12485574185848236,
					0.05394551903009415,
					1
				],
				"baseColorTexture":{
					"index":3
				},
				"metallicFactor":0
			}
		},
		{
			"doubleSided":true,
			"extensions":{
				"KHR_materials_specular":{
					"specularFactor":0
				},
				"KHR_materials_ior":{
					"ior":1.4500000476837158
				}
			},
			"name":"LogMaterialTop.003",
			"pbrMetallicRoughness":{
				"baseColorFactor":[
					1,
					0.6052941679954529,
					0.28092408180236816,
					1
				],
				"baseColorTexture":{
					"index":4
				},
				"metallicFactor":0
			}
		},
		{
			"doubleSided":true,
			"extensions":{
				"KHR_materials_specular":{
					"specularFactor":0
				},
				"KHR_materials_ior":{
					"ior":1
				}
			},
			"name":"rope_material",
			"normalTexture":{
				"index":5,
				"scale":0.5	
			},
			"pbrMetallicRoughness":{
				"baseColorTexture":{
					"index":6
				},
				"metallicFactor":0
			}
		}
	],
	"meshes":[
		{
			"name":"Cube.008",
			"primitives":[
				{
					"attributes":{
						"POSITION":0,
						"NORMAL":1,
						"TEXCOORD_0":2,
						"TEXCOORD_1":3,
						"TEXCOORD_2":4
					},
					"indices":5,
					"material":0
				}
			]
		},
		{
			"name":"Plank.005",
			"primitives":[
				{
					"attributes":{
						"POSITION":6,
						"NORMAL":7,
						"TEXCOORD_0":8
					},
					"indices":9,
					"material":1
				},
				{
					"attributes":{
						"POSITION":10,
						"NORMAL":11,
						"TEXCOORD_0":12
					},
					"indices":13,
					"material":2
				}
			]
		},
		{
			"name":"Plank.004",
			"primitives":[
				{
					"attributes":{
						"POSITION":14,
						"NORMAL":15,
						"TEXCOORD_0":16
					},
					"indices":17,
					"material":3
				}
			]
		}
	],
	"textures":[
		{
			"sampler":0,
			"source":0
		},
		{
			"sampler":0,
			"source":1
		},
		{
			"sampler":0,
			"source":2
		},
		{
			"sampler":0,
			"source":1
		},
		{
			"sampler":0,
			"source":1
		},
		{
			"sampler":0,
			"source":3
		},
		{
			"sampler":0,
			"source":4
		}
	],
	"images":[
		{
			"mimeType":"image/png",
			"name":"noise_normal",
			"uri":"noise_normal.png"
		},
		{
			"mimeType":"image/png",
			"name":"hexagon_microtile",
			"uri":"hexagon_microtile.png"
		},
		{
			"mimeType":"image/png",
			"name":"noise_low_contrast_bright",
			"uri":"noise_low_contrast_bright.png"
		},
		{
			"mimeType":"image/png",
			"name":"ropenormal",
			"uri":"ropenormal.png"
		},
		{
			"mimeType":"image/png",
			"name":"ropecolor",
			"uri":"ropecolor.png"
		}
	],
	"accessors":[
		{
			"bufferView":0,
			"componentType":5126,
			"count":160,
			"max":[
				1.999822735786438,
				1.0575594902038574,
				1.9998226165771484
			],
			"min":[
				-1.999822735786438,
				0.08285580575466156,
				-1.9998226165771484
			],
			"type":"VEC3"
		},
		{
			"bufferView":1,
			"componentType":5126,
			"count":160,
			"type":"VEC3"
		},
		{
			"bufferView":2,
			"componentType":5126,
			"count":160,
			"type":"VEC2"
		},
		{
			"bufferView":3,
			"componentType":5126,
			"count":160,
			"type":"VEC2"
		},
		{
			"bufferView":4,
			"componentType":5126,
			"count":160,
			"type":"VEC2"
		},
		{
			"bufferView":5,
			"componentType":5123,
			"count":282,
			"type":"SCALAR"
		},
		{
			"bufferView":6,
			"componentType":5126,
			"count":9905,
			"max":[
				2.208315849304199,
				1.319385051727295,
				2.2258987426757812
			],
			"min":[
				-2.2307820320129395,
				-0.3016909956932068,
				-2.2227790355682373
			],
			"type":"VEC3"
		},
		{
			"bufferView":7,
			"componentType":5126,
			"count":9905,
			"type":"VEC3"
		},
		{
			"bufferView":8,
			"componentType":5126,
			"count":9905,
			"type":"VEC2"
		},
		{
			"bufferView":9,
			"componentType":5123,
			"count":48720,
			"type":"SCALAR"
		},
		{
			"bufferView":10,
			"componentType":5126,
			"count":1925,
			"max":[
				2.2080278396606445,
				1.3373956680297852,
				2.225609540939331
			],
			"min":[
				-2.230487108230591,
				1.090235948562622,
				-2.222133159637451
			],
			"type":"VEC3"
		},
		{
			"bufferView":11,
			"componentType":5126,
			"count":1925,
			"type":"VEC3"
		},
		{
			"bufferView":12,
			"componentType":5126,
			"count":1925,
			"type":"VEC2"
		},
		{
			"bufferView":13,
			"componentType":5123,
			"count":8400,
			"type":"SCALAR"
		},
		{
			"bufferView":14,
			"componentType":5126,
			"count":726,
			"max":[
				2.264514684677124,
				0.029707301408052444,
				2.264503002166748
			],
			"min":[
				-2.2645113468170166,
				-0.6876641511917114,
				-2.2645158767700195
			],
			"type":"VEC3"
		},
		{
			"bufferView":15,
			"componentType":5126,
			"count":726,
			"type":"VEC3"
		},
		{
			"bufferView":16,
			"componentType":5126,
			"count":726,
			"type":"VEC2"
		},
		{
			"bufferView":17,
			"componentType":5123,
			"count":3840,
			"type":"SCALAR"
		}
	],
	"bufferViews":[
		{
			"buffer":0,
			"byteLength":1920,
			"byteOffset":0,
			"target":34962
		},
		{
			"buffer":0,
			"byteLength":1920,
			"byteOffset":1920,
			"target":34962
		},
		{
			"buffer":0,
			"byteLength":1280,
			"byteOffset":3840,
			"target":34962
		},
		{
			"buffer":0,
			"byteLength":1280,
			"byteOffset":5120,
			"target":34962
		},
		{
			"buffer":0,
			"byteLength":1280,
			"byteOffset":6400,
			"target":34962
		},
		{
			"buffer":0,
			"byteLength":564,
			"byteOffset":7680,
			"target":34963
		},
		{
			"buffer":0,
			"byteLength":118860,
			"byteOffset":8244,
			"target":34962
		},
		{
			"buffer":0,
			"byteLength":118860,
			"byteOffset":127104,
			"target":34962
		},
		{
			"buffer":0,
			"byteLength":79240,
			"byteOffset":245964,
			"target":34962
		},
		{
			"buffer":0,
			"byteLength":97440,
			"byteOffset":325204,
			"target":34963
		},
		{
			"buffer":0,
			"byteLength":23100,
			"byteOffset":422644,
			"target":34962
		},
		{
			"buffer":0,
			"byteLength":23100,
			"byteOffset":445744,
			"target":34962
		},
		{
			"buffer":0,
			"byteLength":15400,
			"byteOffset":468844,
			"target":34962
		},
		{
			"buffer":0,
			"byteLength":16800,
			"byteOffset":484244,
			"target":34963
		},
		{
			"buffer":0,
			"byteLength":8712,
			"byteOffset":501044,
			"target":34962
		},
		{
			"buffer":0,
			"byteLength":8712,
			"byteOffset":509756,
			"target":34962
		},
		{
			"buffer":0,
			"byteLength":5808,
			"byteOffset":518468,
			"target":34962
		},
		{
			"buffer":0,
			"byteLength":7680,
			"byteOffset":524276,
			"target":34963
		}
	],
	"samplers":[
		{
			"magFilter":9729,
			"minFilter":9987
		}
	],
	"buffers":[
		{
			"byteLength":531956,
			"uri":"planter.bin"
		}
	]
}
