{
	"asset":{
		"generator":"Khronos glTF Blender I/O v4.0.44",
		"version":"2.0"
	},
	"extensionsUsed":[
		"KHR_materials_specular",
		"KHR_materials_ior"
	],
	"scene":0,
	"scenes":[
		{
			"name":"Scene",
			"nodes":[
				0
			]
		}
	],
	"nodes":[
		{
			"mesh":0,
			"name":"pot",
			"translation":[
				0,
				1.0791569948196411,
				0
			]
		}
	],
	"materials":[
		{
			"doubleSided":true,
			"extensions":{
				"KHR_materials_specular":{
					"specularFactor":0.529411792755127
				},
				"KHR_materials_ior":{
					"ior":1.4500000476837158
				}
			},
			"name":"PotMaterial",
			"pbrMetallicRoughness":{
				"baseColorFactor":[
					1,
					0.3147834539413452,
					0.04814726114273071,
					1
				],
				"baseColorTexture":{
					"index":0
				},
				"metallicFactor":0
			}
		},
		{
			"doubleSided":true,
			"extensions":{
				"KHR_materials_specular":{
					"specularFactor":0.529411792755127
				},
				"KHR_materials_ior":{
					"ior":1.4500000476837158
				}
			},
			"name":"Dirt",
			"normalTexture":{
				"index":1,
				"scale":0.30000007152557373,
				"texCoord":1
			},
			"pbrMetallicRoughness":{
				"baseColorFactor":[
					0.051269881427288055,
					0.02315366081893444,
					0.006995455827564001,
					1
				],
				"baseColorTexture":{
					"index":2
				},
				"metallicFactor":0,
				"metallicRoughnessTexture":{
					"index":3,
					"texCoord":2
				}
			}
		}
	],
	"meshes":[
		{
			"name":"Cylinder.008",
			"primitives":[
				{
					"attributes":{
						"POSITION":0,
						"NORMAL":1,
						"TEXCOORD_0":2,
						"TEXCOORD_1":3,
						"TEXCOORD_2":4
					},
					"indices":5,
					"material":0
				},
				{
					"attributes":{
						"POSITION":6,
						"NORMAL":7,
						"TEXCOORD_0":8,
						"TEXCOORD_1":9,
						"TEXCOORD_2":10
					},
					"indices":11,
					"material":1
				}
			]
		}
	],
	"textures":[
		{
			"sampler":0,
			"source":0
		},
		{
			"sampler":0,
			"source":1
		},
		{
			"sampler":0,
			"source":0
		},
		{
			"sampler":0,
			"source":2
		}
	],
	"images":[
		{
			"mimeType":"image/png",
			"name":"hexagon_microtile",
			"uri":"hexagon_microtile.png"
		},
		{
			"mimeType":"image/png",
			"name":"noise_normal",
			"uri":"noise_normal.png"
		},
		{
			"mimeType":"image/png",
			"name":"noise_low_contrast_bright",
			"uri":"noise_low_contrast_bright.png"
		}
	],
	"accessors":[
		{
			"bufferView":0,
			"componentType":5126,
			"count":264,
			"max":[
				1.3360806703567505,
				0.3990325629711151,
				1.3360806703567505
			],
			"min":[
				-1.3360806703567505,
				-0.7471562027931213,
				-1.3360806703567505
			],
			"type":"VEC3"
		},
		{
			"bufferView":1,
			"componentType":5126,
			"count":264,
			"type":"VEC3"
		},
		{
			"bufferView":2,
			"componentType":5126,
			"count":264,
			"type":"VEC2"
		},
		{
			"bufferView":3,
			"componentType":5126,
			"count":264,
			"type":"VEC2"
		},
		{
			"bufferView":4,
			"componentType":5126,
			"count":264,
			"type":"VEC2"
		},
		{
			"bufferView":5,
			"componentType":5123,
			"count":1152,
			"type":"SCALAR"
		},
		{
			"bufferView":6,
			"componentType":5126,
			"count":24,
			"max":[
				0.9641588926315308,
				0.22616973519325256,
				0.9641588926315308
			],
			"min":[
				-0.964158833026886,
				0.22616973519325256,
				-0.9641588926315308
			],
			"type":"VEC3"
		},
		{
			"bufferView":7,
			"componentType":5126,
			"count":24,
			"type":"VEC3"
		},
		{
			"bufferView":8,
			"componentType":5126,
			"count":24,
			"type":"VEC2"
		},
		{
			"bufferView":9,
			"componentType":5126,
			"count":24,
			"type":"VEC2"
		},
		{
			"bufferView":10,
			"componentType":5126,
			"count":24,
			"type":"VEC2"
		},
		{
			"bufferView":11,
			"componentType":5123,
			"count":66,
			"type":"SCALAR"
		}
	],
	"bufferViews":[
		{
			"buffer":0,
			"byteLength":3168,
			"byteOffset":0,
			"target":34962
		},
		{
			"buffer":0,
			"byteLength":3168,
			"byteOffset":3168,
			"target":34962
		},
		{
			"buffer":0,
			"byteLength":2112,
			"byteOffset":6336,
			"target":34962
		},
		{
			"buffer":0,
			"byteLength":2112,
			"byteOffset":8448,
			"target":34962
		},
		{
			"buffer":0,
			"byteLength":2112,
			"byteOffset":10560,
			"target":34962
		},
		{
			"buffer":0,
			"byteLength":2304,
			"byteOffset":12672,
			"target":34963
		},
		{
			"buffer":0,
			"byteLength":288,
			"byteOffset":14976,
			"target":34962
		},
		{
			"buffer":0,
			"byteLength":288,
			"byteOffset":15264,
			"target":34962
		},
		{
			"buffer":0,
			"byteLength":192,
			"byteOffset":15552,
			"target":34962
		},
		{
			"buffer":0,
			"byteLength":192,
			"byteOffset":15744,
			"target":34962
		},
		{
			"buffer":0,
			"byteLength":192,
			"byteOffset":15936,
			"target":34962
		},
		{
			"buffer":0,
			"byteLength":132,
			"byteOffset":16128,
			"target":34963
		}
	],
	"samplers":[
		{
			"magFilter":9729,
			"minFilter":9987
		}
	],
	"buffers":[
		{
			"byteLength":16260,
			"uri":"pot.bin"
		}
	]
}
