{
	"asset":{
		"generator":"Khronos glTF Blender I/O v4.0.44",
		"version":"2.0"
	},
	"extensionsUsed":[
		"KHR_materials_specular",
		"KHR_materials_ior"
	],
	"scene":0,
	"scenes":[
		{
			"name":"Scene",
			"nodes":[
				0
			]
		}
	],
	"nodes":[
		{
			"mesh":0,
			"name":"Rockflowers",
			"translation":[
				0,
				1.0791569948196411,
				0
			]
		}
	],
	"materials":[
		{
			"doubleSided":true,
			"extensions":{
				"KHR_materials_specular":{
					"specularFactor":0.3999999761581421
				},
				"KHR_materials_ior":{
					"ior":1.4500000476837158
				}
			},
			"name":"RockMaterial",
			"pbrMetallicRoughness":{
				"baseColorFactor":[
					0.47687336802482605,
					0.4537946283817291,
					0.4292638301849365,
					1
				],
				"baseColorTexture":{
					"index":0
				},
				"metallicFactor":0,
				"roughnessFactor":0.7409090995788574
			}
		},
		{
			"doubleSided":true,
			"name":"YellowSucculentMaterial",
			"pbrMetallicRoughness":{
				"baseColorFactor":[
					0.8000000715255737,
					0.7093244194984436,
					0,
					1
				],
				"metallicFactor":0
			}
		},
		{
			"doubleSided":true,
			"name":"RedSucculentMaterial",
			"pbrMetallicRoughness":{
				"baseColorFactor":[
					0.8000000715255737,
					0.1143554225564003,
					0.14631375670433044,
					1
				],
				"metallicFactor":0
			}
		}
	],
	"meshes":[
		{
			"name":"Icosphere.158",
			"primitives":[
				{
					"attributes":{
						"POSITION":0,
						"NORMAL":1,
						"TEXCOORD_0":2
					},
					"indices":3,
					"material":0
				},
				{
					"attributes":{
						"POSITION":4,
						"NORMAL":5,
						"TEXCOORD_0":6
					},
					"indices":7,
					"material":1
				},
				{
					"attributes":{
						"POSITION":8,
						"NORMAL":9,
						"TEXCOORD_0":10
					},
					"indices":11,
					"material":2
				}
			]
		}
	],
	"textures":[
		{
			"sampler":0,
			"source":0
		}
	],
	"images":[
		{
			"mimeType":"image/png",
			"name":"hexagon_microtile",
			"uri":"hexagon_microtile.png"
		}
	],
	"accessors":[
		{
			"bufferView":0,
			"componentType":5126,
			"count":46,
			"max":[
				1.0769438743591309,
				1.3076143264770508,
				1.1464755535125732
			],
			"min":[
				-1.0843689441680908,
				-1.1170604228973389,
				-1.4790318012237549
			],
			"type":"VEC3"
		},
		{
			"bufferView":1,
			"componentType":5126,
			"count":46,
			"type":"VEC3"
		},
		{
			"bufferView":2,
			"componentType":5126,
			"count":46,
			"type":"VEC2"
		},
		{
			"bufferView":3,
			"componentType":5123,
			"count":240,
			"type":"SCALAR"
		},
		{
			"bufferView":4,
			"componentType":5126,
			"count":3258,
			"max":[
				-0.19843357801437378,
				1.3271681070327759,
				0.8456871509552002
			],
			"min":[
				-1.0757160186767578,
				0.41480714082717896,
				-0.24601265788078308
			],
			"type":"VEC3"
		},
		{
			"bufferView":5,
			"componentType":5126,
			"count":3258,
			"type":"VEC3"
		},
		{
			"bufferView":6,
			"componentType":5126,
			"count":3258,
			"type":"VEC2"
		},
		{
			"bufferView":7,
			"componentType":5123,
			"count":9600,
			"type":"SCALAR"
		},
		{
			"bufferView":8,
			"componentType":5126,
			"count":1637,
			"max":[
				1.264157772064209,
				1.1878191232681274,
				0.2881183624267578
			],
			"min":[
				0.6331462264060974,
				0.5251146554946899,
				-0.4157535433769226
			],
			"type":"VEC3"
		},
		{
			"bufferView":9,
			"componentType":5126,
			"count":1637,
			"type":"VEC3"
		},
		{
			"bufferView":10,
			"componentType":5126,
			"count":1637,
			"type":"VEC2"
		},
		{
			"bufferView":11,
			"componentType":5123,
			"count":4800,
			"type":"SCALAR"
		}
	],
	"bufferViews":[
		{
			"buffer":0,
			"byteLength":552,
			"byteOffset":0,
			"target":34962
		},
		{
			"buffer":0,
			"byteLength":552,
			"byteOffset":552,
			"target":34962
		},
		{
			"buffer":0,
			"byteLength":368,
			"byteOffset":1104,
			"target":34962
		},
		{
			"buffer":0,
			"byteLength":480,
			"byteOffset":1472,
			"target":34963
		},
		{
			"buffer":0,
			"byteLength":39096,
			"byteOffset":1952,
			"target":34962
		},
		{
			"buffer":0,
			"byteLength":39096,
			"byteOffset":41048,
			"target":34962
		},
		{
			"buffer":0,
			"byteLength":26064,
			"byteOffset":80144,
			"target":34962
		},
		{
			"buffer":0,
			"byteLength":19200,
			"byteOffset":106208,
			"target":34963
		},
		{
			"buffer":0,
			"byteLength":19644,
			"byteOffset":125408,
			"target":34962
		},
		{
			"buffer":0,
			"byteLength":19644,
			"byteOffset":145052,
			"target":34962
		},
		{
			"buffer":0,
			"byteLength":13096,
			"byteOffset":164696,
			"target":34962
		},
		{
			"buffer":0,
			"byteLength":9600,
			"byteOffset":177792,
			"target":34963
		}
	],
	"samplers":[
		{
			"magFilter":9729,
			"minFilter":9987
		}
	],
	"buffers":[
		{
			"byteLength":187392,
			"uri":"rockflowers.bin"
		}
	]
}
