{
	"asset":{
		"generator":"Khronos glTF Blender I/O v4.0.44",
		"version":"2.0"
	},
	"extensionsUsed":[
		"KHR_materials_specular",
		"KHR_materials_ior",
		"KHR_materials_unlit"
	],
	"scene":2,
	"scenes":[
		{
			"name":"bake scene"
		},
		{
			"name":"comp_scene"
		},
		{
			"name":"Scene",
			"nodes":[
				0,
				1,
				2,
				3,
				4,
				5,
				6,
				7,
				8,
				9,
				10,
				11,
				12,
				13,
				14,
				15,
				16,
				17,
				18,
				19,
				20,
				21,
				22,
				23,
				24,
				25,
				26,
				27,
				28,
				29,
				30
			]
		}
	],
	"nodes":[
		{
			"mesh":0,
			"name":"Ground",
			"translation":[
				0,
				-0.2615775763988495,
				0
			]
		},
		{
			"mesh":1,
			"name":"Ground.002",
			"scale":[
				1.7803313732147217,
				0.7813431620597839,
				1.7803313732147217
			],
			"translation":[
				0.039057761430740356,
				0.5179107785224915,
				0.006325855385512114
			]
		},
		{
			"mesh":2,
			"name":"Ground.003",
			"scale":[
				1.7803313732147217,
				0.7813431620597839,
				1.7803313732147217
			]
		},
		{
			"mesh":3,
			"name":"Ground.004",
			"scale":[
				1.7538293600082397,
				0.7697120904922485,
				1.7538293600082397
			],
			"translation":[
				11.046207427978516,
				-0.23365849256515503,
				-17.65849494934082
			]
		},
		{
			"mesh":4,
			"name":"Ground.005",
			"scale":[
				1.7538293600082397,
				0.7697120904922485,
				1.7538293600082397
			],
			"translation":[
				11.046207427978516,
				-0.0756017342209816,
				-17.65849494934082
			]
		},
		{
			"mesh":5,
			"name":"Leaf.196",
			"rotation":[
				0.14195573329925537,
				-0.7231302857398987,
				0.657701313495636,
				0.15607769787311554
			],
			"scale":[
				0.23999997973442078,
				0.24000002443790436,
				0.24000000953674316
			],
			"translation":[
				-29.80914306640625,
				1.8589603900909424,
				19.075246810913086
			]
		},
		{
			"mesh":6,
			"name":"Leaf.001",
			"rotation":[
				0.14195573329925537,
				-0.7231302857398987,
				0.657701313495636,
				0.15607769787311554
			],
			"scale":[
				0.23999997973442078,
				0.24000002443790436,
				0.24000000953674316
			],
			"translation":[
				-29.80914306640625,
				1.8589603900909424,
				19.075246810913086
			]
		},
		{
			"mesh":7,
			"name":"Tree.001",
			"scale":[
				1.9038327932357788,
				1.9038327932357788,
				1.9038327932357788
			],
			"translation":[
				14.82105541229248,
				-0.7890980243682861,
				-18.85341453552246
			]
		},
		{
			"mesh":7,
			"name":"Tree.002",
			"rotation":[
				0,
				-0.3587261438369751,
				0,
				0.9334428906440735
			],
			"scale":[
				1.9538559913635254,
				1.9538556337356567,
				1.9538559913635254
			],
			"translation":[
				20.90935516357422,
				-0.8921959400177002,
				-4.308602333068848
			]
		},
		{
			"mesh":7,
			"name":"Tree.003",
			"rotation":[
				0,
				-0.367576539516449,
				0,
				0.9299932718276978
			],
			"scale":[
				1.953856110572815,
				1.9538556337356567,
				1.953856110572815
			],
			"translation":[
				15.611227035522461,
				-0.7890980243682861,
				17.49445915222168
			]
		},
		{
			"mesh":7,
			"name":"Tree.005",
			"rotation":[
				0,
				-0.3587260842323303,
				0,
				0.9334428906440735
			],
			"scale":[
				2.5450990200042725,
				2.545098304748535,
				2.5450990200042725
			],
			"translation":[
				-23.37054443359375,
				-0.7069464325904846,
				13.411909103393555
			]
		},
		{
			"mesh":7,
			"name":"Tree.006",
			"rotation":[
				0,
				-0.3587260842323303,
				0,
				0.9334428906440735
			],
			"scale":[
				2.003957986831665,
				2.003957509994507,
				2.003957986831665
			],
			"translation":[
				-22.28458595275879,
				-0.7890980243682861,
				-7.8951005935668945
			]
		},
		{
			"mesh":7,
			"name":"Tree.007",
			"rotation":[
				0,
				-0.3587260842323303,
				0,
				0.9334428906440735
			],
			"scale":[
				2.717242956161499,
				2.717242479324341,
				2.717242956161499
			],
			"translation":[
				-15.06716251373291,
				-0.7890980243682861,
				-18.74148178100586
			]
		},
		{
			"mesh":7,
			"name":"Tree.008",
			"rotation":[
				0,
				0.3891080915927887,
				0,
				0.9211921095848083
			],
			"scale":[
				2.6811251640319824,
				2.681124448776245,
				2.6811251640319824
			],
			"translation":[
				0.3345879316329956,
				-0.7890980243682861,
				-22.540878295898438
			]
		},
		{
			"mesh":7,
			"name":"Tree.004",
			"rotation":[
				0,
				0.5147007703781128,
				0,
				0.8573698997497559
			],
			"scale":[
				2.6307780742645264,
				2.630777359008789,
				2.6307780742645264
			],
			"translation":[
				27.165218353271484,
				2.520726442337036,
				-15.652641296386719
			]
		},
		{
			"mesh":7,
			"name":"Tree.009",
			"rotation":[
				0,
				-0.7999114990234375,
				0,
				0.6001179814338684
			],
			"scale":[
				2.6307778358459473,
				2.630777359008789,
				2.6307778358459473
			],
			"translation":[
				21.581695556640625,
				2.520726442337036,
				8.443201065063477
			]
		},
		{
			"mesh":7,
			"name":"Tree.011",
			"rotation":[
				0,
				-0.026388149708509445,
				0,
				0.9996517896652222
			],
			"scale":[
				2.6307783126831055,
				2.630777359008789,
				2.6307783126831055
			],
			"translation":[
				-22.82888412475586,
				2.603973150253296,
				3.7788143157958984
			]
		},
		{
			"mesh":7,
			"name":"Tree.012",
			"rotation":[
				0,
				0.17486591637134552,
				0,
				0.9845922589302063
			],
			"scale":[
				2.6307778358459473,
				2.630777359008789,
				2.6307778358459473
			],
			"translation":[
				-24.08800506591797,
				2.520726442337036,
				-24.166351318359375
			]
		},
		{
			"mesh":7,
			"name":"Tree.013",
			"rotation":[
				0,
				-0.026388149708509445,
				0,
				0.9996517896652222
			],
			"scale":[
				2.6307783126831055,
				2.630777359008789,
				2.6307783126831055
			],
			"translation":[
				-9.125157356262207,
				2.520726442337036,
				-33.06708526611328
			]
		},
		{
			"mesh":7,
			"name":"Tree.014",
			"rotation":[
				0,
				-0.5586940050125122,
				0,
				0.8293738961219788
			],
			"scale":[
				2.6307780742645264,
				2.630777359008789,
				2.6307780742645264
			],
			"translation":[
				11.784807205200195,
				2.520726442337036,
				-28.63545799255371
			]
		},
		{
			"mesh":8,
			"name":"Tree.010",
			"rotation":[
				0,
				0.25762665271759033,
				0,
				0.9662445783615112
			],
			"scale":[
				3.056964635848999,
				3.056964635848999,
				3.056964635848999
			],
			"translation":[
				7.548028945922852,
				-0.7890980243682861,
				-23.997142791748047
			]
		},
		{
			"mesh":8,
			"name":"Tree.015",
			"rotation":[
				0,
				-0.10613743960857391,
				0,
				0.9943515658378601
			],
			"scale":[
				2.8568599224090576,
				2.856858968734741,
				2.8568599224090576
			],
			"translation":[
				20.069438934326172,
				-0.8921959400177002,
				-14.414178848266602
			]
		},
		{
			"mesh":8,
			"name":"Tree.016",
			"rotation":[
				0,
				-0.11557778716087341,
				0,
				0.9932985305786133
			],
			"scale":[
				1.9538559913635254,
				1.9538556337356567,
				1.9538559913635254
			],
			"translation":[
				26.32948875427246,
				-0.7890980243682861,
				7.13240909576416
			]
		},
		{
			"mesh":8,
			"name":"Tree.018",
			"rotation":[
				0,
				-0.10613743960857391,
				0,
				0.9943515658378601
			],
			"scale":[
				2.468785047531128,
				2.4687843322753906,
				2.468785047531128
			],
			"translation":[
				-19.104013442993164,
				-0.7890980243682861,
				3.906588077545166
			]
		},
		{
			"mesh":8,
			"name":"Tree.019",
			"rotation":[
				0,
				-0.10613745450973511,
				0,
				0.9943515658378601
			],
			"scale":[
				2.0783658027648926,
				2.0783655643463135,
				2.0783658027648926
			],
			"translation":[
				-18.31287956237793,
				-0.7890980243682861,
				-8.999478340148926
			]
		},
		{
			"mesh":8,
			"name":"Tree.020",
			"rotation":[
				0,
				0.613297164440155,
				0,
				0.7898522615432739
			],
			"scale":[
				1.9538559913635254,
				1.9538556337356567,
				1.9538559913635254
			],
			"translation":[
				-6.85130500793457,
				-0.7890980243682861,
				-19.982879638671875
			]
		},
		{
			"mesh":8,
			"name":"Tree.021",
			"rotation":[
				0,
				0.7182081341743469,
				0,
				0.695828378200531
			],
			"scale":[
				2.6307778358459473,
				2.630777359008789,
				2.6307778358459473
			],
			"translation":[
				19.847129821777344,
				2.520726442337036,
				-27.366924285888672
			]
		},
		{
			"mesh":8,
			"name":"Tree.022",
			"rotation":[
				0,
				-0.6183037161827087,
				0,
				0.7859392762184143
			],
			"scale":[
				2.6307778358459473,
				2.630777359008789,
				2.6307778358459473
			],
			"translation":[
				27.00115394592285,
				2.520726442337036,
				-3.689817428588867
			]
		},
		{
			"mesh":8,
			"name":"Tree.024",
			"rotation":[
				0,
				0.4226204454898834,
				0,
				0.9063067436218262
			],
			"scale":[
				2.6307780742645264,
				2.630777359008789,
				2.6307780742645264
			],
			"translation":[
				-28.841230392456055,
				2.520726442337036,
				-9.233534812927246
			]
		},
		{
			"mesh":8,
			"name":"Tree.025",
			"rotation":[
				0,
				0.23203954100608826,
				0,
				0.9727064371109009
			],
			"scale":[
				2.6307785511016846,
				2.630777359008789,
				2.6307785511016846
			],
			"translation":[
				-20.29591941833496,
				2.520726442337036,
				-24.402172088623047
			]
		},
		{
			"mesh":8,
			"name":"Tree.026",
			"rotation":[
				0,
				-0.32616621255874634,
				0,
				0.9453124403953552
			],
			"scale":[
				2.6307780742645264,
				2.630777359008789,
				2.6307780742645264
			],
			"translation":[
				0.044727325439453125,
				2.520726442337036,
				-30.969058990478516
			]
		}
	],
	"materials":[
		{
			"doubleSided":false,
			"extensions":{
				"KHR_materials_specular":{
					"specularFactor":0.0
				},
				"KHR_materials_ior":{
					"ior":1.4500000476837158
				}
			},
			"name":"Dirt",
			"pbrMetallicRoughness":{
				"baseColorFactor":[
					0.051269881427288055,
					0.02315366081893444,
					0.006995455827564001,
					1
				],
				"baseColorTexture":{
					"index":0
				},
				"metallicFactor":0,
				"metallicRoughnessTexture":{
					"index":1
				}
			}
		},
		{
			"doubleSided":false,
			"extensions":{
				"KHR_materials_specular":{
					"specularFactor":0.0
				},
				"KHR_materials_ior":{
					"ior":1
				}
			},
			"name":"GrassMaterial.001",
			"pbrMetallicRoughness":{
				"baseColorFactor":[
					0.17899072170257568,
					0.38658201694488525,
					0.019904062151908875,
					1
				],
				"baseColorTexture":{
					"index":2
				},
				"metallicFactor":0,
				"roughnessFactor":1
			}
		},
		{
			"alphaMode":"BLEND",
			"doubleSided":false,
			"name":"Water",
			"pbrMetallicRoughness":{
				"baseColorFactor":[
					1,
					1,
					1,
					0.45560532808303833
				],
				"baseColorTexture":{
					"index":3
				},
				"metallicFactor":0,
				"roughnessFactor":0.10362694412469864
			}
		},
		{
			"alphaMode":"BLEND",
			"doubleSided":false,
			"name":"MuddyWater",
			"pbrMetallicRoughness":{
				"baseColorFactor":[
					0.135, 0.059, 0.034, 0.717
				],
				"baseColorTexture":{
					"index":4
				},
				"metallicFactor":0,
				"roughnessFactor":0.10362694412469864
			}
		},
		{
			"doubleSided":false,
			"name":"Material.004",
			"pbrMetallicRoughness": {
                "baseColorFactor": [ 0.788235294117647,0.5529411764705883,0.6627450980392157, 1.0 ]
            },
            "extensions": {

            }
		},
		{
			"doubleSided":false,
			"extensions":{
				"KHR_materials_specular":{
					"specularFactor":0
				},
				"KHR_materials_ior":{
					"ior":1.4500000476837158
				}
			},
			"name":"TreeTrunkMaterial",
			"pbrMetallicRoughness":{
				"baseColorFactor":[
					0.294524610042572,
					0.09502840787172318,
					0.026361022144556046,
					1
				],
				"baseColorTexture":{
					"index":5
				},
				"metallicFactor":0
			}
		},
		{
			"doubleSided":false,
			"extensions":{
				"KHR_materials_specular":{
					"specularFactor":0.09999996423721313
				},
				"KHR_materials_ior":{
					"ior":1.4500000476837158
				}
			},
			"name":"TreeFoliageMaterial",
			"pbrMetallicRoughness":{
				"baseColorFactor":[
					0.9985446929931641,
					0.3369344472885132,
					1,
					1
				],
				"baseColorTexture":{
					"index":6
				},
				"metallicFactor":0
			}
		}
	],
	"meshes":[
		{
			"name":"Plane.003",
			"primitives":[
				{
					"attributes":{
						"POSITION":0,
						"NORMAL":1,
						"TEXCOORD_0":2
					},
					"indices":3,
					"material":0
				}
			]
		},
		{
			"name":"Plane.004",
			"primitives":[
				{
					"attributes":{
						"POSITION":4,
						"NORMAL":5,
						"TEXCOORD_0":6
					},
					"indices":7,
					"material":1
				}
			]
		},
		{
			"name":"Plane.005",
			"primitives":[
				{
					"attributes":{
						"POSITION":8,
						"NORMAL":9,
						"TEXCOORD_0":10
					},
					"indices":11,
					"material":2
				}
			]
		},
		{
			"name":"Plane.006",
			"primitives":[
				{
					"attributes":{
						"POSITION":12,
						"NORMAL":13,
						"TEXCOORD_0":14
					},
					"indices":15,
					"material":3
				}
			]
		},
		{
			"name":"Plane.007",
			"primitives":[
				{
					"attributes":{
						"POSITION":16,
						"NORMAL":17,
						"TEXCOORD_0":18
					},
					"indices":19,
					"material":2
				}
			]
		},
		{
			"name":"Plane.002",
			"primitives":[
				{
					"attributes":{
						"POSITION":20,
						"NORMAL":21,
						"TEXCOORD_0":22
					},
					"indices":23,
					"material":4
				}
			]
		},
		{
			"name":"Plane.010",
			"primitives":[
				{
					"attributes":{
						"POSITION":24,
						"NORMAL":25,
						"TEXCOORD_0":26
					},
					"indices":27,
					"material":4
				}
			]
		},
		{
			"name":"Cylinder.004",
			"primitives":[
				{
					"attributes":{
						"POSITION":28,
						"NORMAL":29,
						"TEXCOORD_0":30
					},
					"indices":31,
					"material":5
				},
				{
					"attributes":{
						"POSITION":32,
						"NORMAL":33,
						"TEXCOORD_0":34
					},
					"indices":35,
					"material":6
				}
			]
		},
		{
			"name":"Cylinder.002",
			"primitives":[
				{
					"attributes":{
						"POSITION":36,
						"NORMAL":37,
						"TEXCOORD_0":38
					},
					"indices":31,
					"material":5
				},
				{
					"attributes":{
						"POSITION":39,
						"NORMAL":40,
						"TEXCOORD_0":41
					},
					"indices":35,
					"material":6
				}
			]
		}
	],
	"textures":[
		{
			"sampler":0,
			"source":0
		},
		{
			"sampler":0,
			"source":1
		},
		{
			"sampler":0,
			"source":0
		},
		{
			"sampler":0,
			"source":0
		},
		{
			"sampler":0,
			"source":0
		},
		{
			"sampler":0,
			"source":0
		},
		{
			"sampler":0,
			"source":0
		}
	],
	"images":[
		{
			"mimeType":"image/png",
			"name":"hexagon_microtile",
			"uri":"hexagon_microtile.png"
		},
		{
			"mimeType":"image/png",
			"name":"noise_low_contrast_bright",
			"uri":"noise_low_contrast_bright.png"
		}
	],
	"accessors":[
		{
			"bufferView":0,
			"componentType":5126,
			"count":3028,
			"max":[
				15.896445274353027,
				0.12324865162372589,
				13.456747055053711
			],
			"min":[
				-15.362162590026855,
				-0.23972471058368683,
				-17.69036102294922
			],
			"type":"VEC3"
		},
		{
			"bufferView":1,
			"componentType":5126,
			"count":3028,
			"type":"VEC3"
		},
		{
			"bufferView":2,
			"componentType":5126,
			"count":3028,
			"type":"VEC2"
		},
		{
			"bufferView":3,
			"componentType":5123,
			"count":4968,
			"type":"SCALAR"
		},
		{
			"bufferView":4,
			"componentType":5126,
			"count":5675,
			"max":[
				23.647974014282227,
				8.971949577331543,
				23.647979736328125
			],
			"min":[
				-23.647974014282227,
				-1.8662275075912476,
				-23.647979736328125
			],
			"type":"VEC3"
		},
		{
			"bufferView":5,
			"componentType":5126,
			"count":5675,
			"type":"VEC3"
		},
		{
			"bufferView":6,
			"componentType":5126,
			"count":5675,
			"type":"VEC2"
		},
		{
			"bufferView":7,
			"componentType":5123,
			"count":27624,
			"type":"SCALAR"
		},
		{
			"bufferView":8,
			"componentType":5126,
			"count":4,
			"max":[
				-4.072176456451416,
				0,
				8.250371932983398
			],
			"min":[
				-8.53908634185791,
				-0.04841456562280655,
				4.38690185546875
			],
			"type":"VEC3"
		},
		{
			"bufferView":9,
			"componentType":5126,
			"count":4,
			"type":"VEC3"
		},
		{
			"bufferView":10,
			"componentType":5126,
			"count":4,
			"type":"VEC2"
		},
		{
			"bufferView":11,
			"componentType":5123,
			"count":6,
			"type":"SCALAR"
		},
		{
			"bufferView":12,
			"componentType":5126,
			"count":4,
			"max":[
				-0.6079138517379761,
				0.01084955409169197,
				15.603235244750977
			],
			"min":[
				-12.135079383850098,
				0.01084955409169197,
				4.010969161987305
			],
			"type":"VEC3"
		},
		{
			"bufferView":13,
			"componentType":5126,
			"count":4,
			"type":"VEC3"
		},
		{
			"bufferView":14,
			"componentType":5126,
			"count":4,
			"type":"VEC2"
		},
		{
			"bufferView":15,
			"componentType":5123,
			"count":6,
			"type":"SCALAR"
		},
		{
			"bufferView":16,
			"componentType":5126,
			"count":16,
			"max":[
				20.6428165435791,
				0.32194289565086365,
				37.71103286743164
			],
			"min":[
				-33.239410400390625,
				0.32194289565086365,
				-16.171188354492188
			],
			"type":"VEC3"
		},
		{
			"bufferView":17,
			"componentType":5126,
			"count":16,
			"type":"VEC3"
		},
		{
			"bufferView":18,
			"componentType":5126,
			"count":16,
			"type":"VEC2"
		},
		{
			"bufferView":19,
			"componentType":5123,
			"count":48,
			"type":"SCALAR"
		},
		{
			"bufferView":20,
			"componentType":5126,
			"count":156740,
			"max":[
				25.408203125,
				192.05015563964844,
				28.648868560791016
			],
			"min":[
				-314.37066650390625,
				-147.68930053710938,
				-5.999124526977539
			],
			"type":"VEC3"
		},
		{
			"bufferView":21,
			"componentType":5126,
			"count":156740,
			"type":"VEC3"
		},
		{
			"bufferView":22,
			"componentType":5126,
			"count":156740,
			"type":"VEC2"
		},
		{
			"bufferView":23,
			"componentType":5125,
			"count":497880,
			"type":"SCALAR"
		},
		{
			"bufferView":24,
			"componentType":5126,
			"count":2278,
			"max":[
				-105.8657455444336,
				73.01435852050781,
				15.328367233276367
			],
			"min":[
				-198.80874633789062,
				-30.794273376464844,
				5.657932281494141
			],
			"type":"VEC3"
		},
		{
			"bufferView":25,
			"componentType":5126,
			"count":2278,
			"type":"VEC3"
		},
		{
			"bufferView":26,
			"componentType":5126,
			"count":2278,
			"type":"VEC2"
		},
		{
			"bufferView":27,
			"componentType":5123,
			"count":7236,
			"type":"SCALAR"
		},
		{
			"bufferView":28,
			"componentType":5126,
			"count":301,
			"max":[
				2.390385866165161,
				4.135725021362305,
				1.6925934553146362
			],
			"min":[
				-1.9220263957977295,
				0.0024068874772638083,
				-1.7469080686569214
			],
			"type":"VEC3"
		},
		{
			"bufferView":29,
			"componentType":5126,
			"count":301,
			"type":"VEC3"
		},
		{
			"bufferView":30,
			"componentType":5126,
			"count":301,
			"type":"VEC2"
		},
		{
			"bufferView":31,
			"componentType":5123,
			"count":1692,
			"type":"SCALAR"
		},
		{
			"bufferView":32,
			"componentType":5126,
			"count":10993,
			"max":[
				2.7129132747650146,
				5.023225784301758,
				2.1861724853515625
			],
			"min":[
				-2.4251840114593506,
				1.8132984638214111,
				-2.097141981124878
			],
			"type":"VEC3"
		},
		{
			"bufferView":33,
			"componentType":5126,
			"count":10993,
			"type":"VEC3"
		},
		{
			"bufferView":34,
			"componentType":5126,
			"count":10993,
			"type":"VEC2"
		},
		{
			"bufferView":35,
			"componentType":5123,
			"count":33360,
			"type":"SCALAR"
		},
		{
			"bufferView":36,
			"componentType":5126,
			"count":301,
			"max":[
				2.390385866165161,
				4.135725021362305,
				1.6925934553146362
			],
			"min":[
				-1.9220263957977295,
				0.0024068874772638083,
				-1.7469080686569214
			],
			"type":"VEC3"
		},
		{
			"bufferView":37,
			"componentType":5126,
			"count":301,
			"type":"VEC3"
		},
		{
			"bufferView":38,
			"componentType":5126,
			"count":301,
			"type":"VEC2"
		},
		{
			"bufferView":39,
			"componentType":5126,
			"count":10993,
			"max":[
				2.7129132747650146,
				5.023225784301758,
				2.1861724853515625
			],
			"min":[
				-2.4251840114593506,
				1.8132984638214111,
				-2.097141981124878
			],
			"type":"VEC3"
		},
		{
			"bufferView":40,
			"componentType":5126,
			"count":10993,
			"type":"VEC3"
		},
		{
			"bufferView":41,
			"componentType":5126,
			"count":10993,
			"type":"VEC2"
		}
	],
	"bufferViews":[
		{
			"buffer":0,
			"byteLength":36336,
			"byteOffset":0,
			"target":34962
		},
		{
			"buffer":0,
			"byteLength":36336,
			"byteOffset":36336,
			"target":34962
		},
		{
			"buffer":0,
			"byteLength":24224,
			"byteOffset":72672,
			"target":34962
		},
		{
			"buffer":0,
			"byteLength":9936,
			"byteOffset":96896,
			"target":34963
		},
		{
			"buffer":0,
			"byteLength":68100,
			"byteOffset":106832,
			"target":34962
		},
		{
			"buffer":0,
			"byteLength":68100,
			"byteOffset":174932,
			"target":34962
		},
		{
			"buffer":0,
			"byteLength":45400,
			"byteOffset":243032,
			"target":34962
		},
		{
			"buffer":0,
			"byteLength":55248,
			"byteOffset":288432,
			"target":34963
		},
		{
			"buffer":0,
			"byteLength":48,
			"byteOffset":343680,
			"target":34962
		},
		{
			"buffer":0,
			"byteLength":48,
			"byteOffset":343728,
			"target":34962
		},
		{
			"buffer":0,
			"byteLength":32,
			"byteOffset":343776,
			"target":34962
		},
		{
			"buffer":0,
			"byteLength":12,
			"byteOffset":343808,
			"target":34963
		},
		{
			"buffer":0,
			"byteLength":48,
			"byteOffset":343820,
			"target":34962
		},
		{
			"buffer":0,
			"byteLength":48,
			"byteOffset":343868,
			"target":34962
		},
		{
			"buffer":0,
			"byteLength":32,
			"byteOffset":343916,
			"target":34962
		},
		{
			"buffer":0,
			"byteLength":12,
			"byteOffset":343948,
			"target":34963
		},
		{
			"buffer":0,
			"byteLength":192,
			"byteOffset":343960,
			"target":34962
		},
		{
			"buffer":0,
			"byteLength":192,
			"byteOffset":344152,
			"target":34962
		},
		{
			"buffer":0,
			"byteLength":128,
			"byteOffset":344344,
			"target":34962
		},
		{
			"buffer":0,
			"byteLength":96,
			"byteOffset":344472,
			"target":34963
		},
		{
			"buffer":0,
			"byteLength":1880880,
			"byteOffset":344568,
			"target":34962
		},
		{
			"buffer":0,
			"byteLength":1880880,
			"byteOffset":2225448,
			"target":34962
		},
		{
			"buffer":0,
			"byteLength":1253920,
			"byteOffset":4106328,
			"target":34962
		},
		{
			"buffer":0,
			"byteLength":1991520,
			"byteOffset":5360248,
			"target":34963
		},
		{
			"buffer":0,
			"byteLength":27336,
			"byteOffset":7351768,
			"target":34962
		},
		{
			"buffer":0,
			"byteLength":27336,
			"byteOffset":7379104,
			"target":34962
		},
		{
			"buffer":0,
			"byteLength":18224,
			"byteOffset":7406440,
			"target":34962
		},
		{
			"buffer":0,
			"byteLength":14472,
			"byteOffset":7424664,
			"target":34963
		},
		{
			"buffer":0,
			"byteLength":3612,
			"byteOffset":7439136,
			"target":34962
		},
		{
			"buffer":0,
			"byteLength":3612,
			"byteOffset":7442748,
			"target":34962
		},
		{
			"buffer":0,
			"byteLength":2408,
			"byteOffset":7446360,
			"target":34962
		},
		{
			"buffer":0,
			"byteLength":3384,
			"byteOffset":7448768,
			"target":34963
		},
		{
			"buffer":0,
			"byteLength":131916,
			"byteOffset":7452152,
			"target":34962
		},
		{
			"buffer":0,
			"byteLength":131916,
			"byteOffset":7584068,
			"target":34962
		},
		{
			"buffer":0,
			"byteLength":87944,
			"byteOffset":7715984,
			"target":34962
		},
		{
			"buffer":0,
			"byteLength":66720,
			"byteOffset":7803928,
			"target":34963
		},
		{
			"buffer":0,
			"byteLength":3612,
			"byteOffset":7870648,
			"target":34962
		},
		{
			"buffer":0,
			"byteLength":3612,
			"byteOffset":7874260,
			"target":34962
		},
		{
			"buffer":0,
			"byteLength":2408,
			"byteOffset":7877872,
			"target":34962
		},
		{
			"buffer":0,
			"byteLength":131916,
			"byteOffset":7880280,
			"target":34962
		},
		{
			"buffer":0,
			"byteLength":131916,
			"byteOffset":8012196,
			"target":34962
		},
		{
			"buffer":0,
			"byteLength":87944,
			"byteOffset":8144112,
			"target":34962
		}
	],
	"samplers":[
		{
			"magFilter":9729,
			"minFilter":9987
		}
	],
	"buffers":[
		{
			"byteLength":8232056,
			"uri":"scene2.bin"
		}
	]
}
